<?xml version="1.0" encoding="utf-8"?>
<!-- Generator: Adobe Illustrator 19.2.1, SVG Export Plug-In . SVG Version: 6.00 Build 0)  -->
<svg version="1.1" id="Calque_1" xmlns="http://www.w3.org/2000/svg" xmlns:xlink="http://www.w3.org/1999/xlink" x="0px" y="0px"
	 viewBox="0 0 93.9 84" style="enable-background:new 0 0 93.9 84;" xml:space="preserve">
<style type="text/css">
	.st0{fill:#FFFFFF;}
</style>
<g>
	<path class="st0" d="M32.3,64.3c-0.2-1-0.3-1.9-0.5-2.7c-0.7,0.2-1.2,0.3-1.9,0.3c-0.5,0-1.2,0-1.7,0c-1.7,0-2.6-0.9-2.6-2.6
		c0-2.6,0-5.3,0-7.9c0-0.2,0-0.3,0-0.7h-3.1v0.5c0,2.9,0,5.7,0,8.6c0,2.2,1,3.8,3.3,4.3C27.8,64.8,30.1,64.5,32.3,64.3z"/>
	<path class="st0" d="M43.1,64.6c1.9-0.5,3.1-1.7,3.4-3.6c0.2-1,0.2-2.1,0.3-3.1c0-1-0.2-1.9-0.2-2.7c-0.5-2.4-1.7-3.8-4.1-4.3
		c-2.1-0.3-4.3-0.5-6.3,0c-2.1,0.5-3.3,1.9-3.6,3.9c-0.3,1.9-0.3,3.8,0,5.8c0.3,2.2,1.4,3.4,3.6,3.9C38.5,65.1,40.7,65.1,43.1,64.6z
		 M37.9,61.7c-1.4-0.2-2.1-0.9-2.2-2.2c-0.2-1.2-0.2-2.6,0-3.8c0.2-1.2,1-1.9,2.2-2.1c0.9,0,1.9,0,2.9,0c1.4,0,2.1,0.7,2.4,2.1
		c0.3,1.5,0.3,2.7,0,4.1c-0.2,1.4-1,2.1-2.6,2.1c-0.3,0-0.7,0-1.2,0C39,61.9,38.5,61.9,37.9,61.7z"/>
	<path class="st0" d="M16.2,64.8c1.2,0,2.2-0.2,3.3-0.7c1.4-0.7,2.2-1.7,2.2-3.3c0-1.9,0.2-3.9,0-5.8c-0.5-2.2-1.5-3.6-3.6-4.1
		c-3.1-0.9-6.2-0.3-9.1,0.3c-0.2,0-0.2,0.2-0.2,0.2c0,0.9,0,1.9,0,2.7c0.3,0,0.5-0.2,0.9-0.2c2.1-0.3,4.1-0.7,6.3-0.5
		c0.5,0,1,0.2,1.5,0.3c0.7,0.3,0.9,1.2,0.2,1.5c-0.2,0.2-0.5,0.3-0.7,0.3c-1.2,0.2-2.4,0.3-3.6,0.7c-1.4,0.2-2.6,0.3-3.8,1
		c-0.9,0.5-1.5,1-1.7,2.1c-0.3,2.1,0.2,3.9,2.6,4.8C12.4,64.8,14.3,64.8,16.2,64.8z M11.4,59.7c1-0.2,2.1-0.3,2.9-0.7
		c1.2-0.3,2.4-0.5,3.8-0.9c0.2,0.5,0.2,0.9,0.2,1.4c0,1.2-0.5,1.9-1.7,2.2c-1.5,0.3-3.1,0.3-4.8,0c-0.2,0-0.2,0-0.3-0.2
		c-0.3-0.2-0.7-0.5-0.7-1S11,59.8,11.4,59.7z"/>
	<path class="st0" d="M76.5,64.6c1,0.2,2.1,0.2,2.9,0.3c1,0,1.9-0.2,2.7-0.2c2.4-0.2,3.9-1.5,4.5-3.9c0.3-1.9,0.3-3.8,0.2-5.7
		c-0.7-2.6-1.7-3.8-4.1-4.3c-2.1-0.3-4.3-0.3-6.3,0c-1.9,0.5-3.1,1.7-3.4,3.6c-0.3,2.1-0.3,4.1,0,6.2C73.3,62.9,74.5,64.3,76.5,64.6
		z M75.8,55.5c0.2-1,1-1.9,2.2-1.9c0.9,0,1.9,0,2.7,0c1.5,0.2,2.4,0.7,2.6,2.2c0.2,1.4,0.2,2.6,0,3.6c-0.2,1.5-1,2.2-2.7,2.4
		c-0.3,0-0.7,0-1,0c-0.5,0-1.2,0-1.7-0.2c-1-0.2-1.7-0.9-2.1-1.9C75.5,58.5,75.5,57.1,75.8,55.5z"/>
	<path class="st0" d="M97.8,50.9c-2.1-0.3-4.1-0.3-6.2,0c-1.9,0.5-3.1,1.7-3.4,3.6C88,55.2,88,55.9,88,56.6c0,2.4,0,5,0,7.4
		c0,0.2,0,0.3,0,0.5h3.1c0-1.2,0-2.2,0-3.3c0-1.5,0-3.3,0.2-4.8c0.2-1.5,1-2.4,2.6-2.6c0.9,0,1.7,0,2.6,0c1.2,0,1.9,0.9,2.2,1.9
		c0.2,0.7,0.2,1.4,0.2,1.9c0,2.1,0,4.1,0,6.2v0.5h3.1c0-3.1,0-5.8-0.2-8.9C101.5,52.8,100.2,51.3,97.8,50.9z"/>
	<path class="st0" d="M101.9,64.3L101.9,64.3C101.9,64.3,101.9,64.5,101.9,64.3L101.9,64.3z"/>
	<path class="st0" d="M6.4,60.3c0-1.9-0.9-2.9-2.7-3.3c-1.5-0.3-3.1-0.5-4.5-0.7c-0.9-0.2-1.9-0.3-2.7-0.5c-0.5-0.2-0.9-0.3-0.9-0.9
		s0.3-0.9,0.9-1s1.2-0.3,1.7-0.3c2.6-0.2,5.1,0,7.5,0.9c0-0.9,0-1.7,0-2.4c0-0.3-0.2-0.5-0.5-0.7c-2.7-0.5-5.5-0.7-8.2-0.5
		c-1,0.2-2.1,0.3-2.9,0.9C-7,52.1-7.5,53-7.8,54c-0.5,2.4,0.3,3.9,2.7,4.6c0.2,0,0.3,0.2,0.7,0.2c1.5,0.2,3.1,0.5,4.6,0.7
		c0.7,0.2,1.5,0.2,2.2,0.5C2.6,60,3,60.5,3,60.7c0,0.3-0.2,0.7-0.5,0.9c-0.2,0.2-0.3,0.2-0.7,0.2c-2.4,0.3-4.8,0.2-7.2-0.3
		c-0.7-0.2-1.4-0.3-2.1-0.5c0,0.9,0,1.7,0,2.7c0,0.3,0.2,0.5,0.3,0.5c2.1,0.5,4.1,0.7,6.2,0.7c1.7,0,3.4,0,5-0.7
		C5.7,63.4,6.6,62.1,6.4,60.3z"/>
	<path class="st0" d="M67.9,64.5H71c0-1.7,0-3.4,0-5.1c0.2-1.4,0.2-2.9,0-4.3c-0.2-2.1-1.4-3.4-3.4-3.9c-0.9-0.2-1.7-0.3-2.6-0.3
		c-2.1,0-3.9,0-5.5,1.4c-0.9-0.3-1.5-0.9-2.2-1c-1.9-0.5-3.8-0.5-5.7-0.2c-2.2,0.3-3.4,1.7-3.8,4.1c-0.5,3.1-0.2,6.2-0.2,9.3
		c0,0.2,0.2,0.3,0.2,0.3c1,0,1.9,0,2.9,0v-0.7c0-1.9,0-3.9,0-5.8c0-0.9,0-1.5,0.2-2.4c0.2-1,0.9-1.7,1.7-1.7c1-0.2,1.9-0.2,2.9,0
		c1,0.2,1.7,0.9,2.1,1.9c0.2,0.5,0.2,1.2,0.2,1.7c0,2.1,0,4.3,0,6.3c0,0.2,0,0.3,0,0.5h3.1c0-0.2,0-0.5,0-0.7c0-2.4,0-4.8,0-7
		c0-1.7,0.7-2.7,2.1-2.9c0.9-0.2,1.9-0.2,2.9,0c1,0.2,1.5,0.9,1.9,1.9c0.2,0.7,0.2,1.4,0.2,2.1c0,1.9,0,3.6,0,5.5
		C67.9,63.3,67.9,64.5,67.9,64.5z"/>
	<path class="st0" d="M31.3,39.8c10.6,0,21.1,0,31.7,0c0.3,0,0.7,0,1.2-0.2c1.5-0.5,2.6-1.9,2.6-3.8c0-10.6,0-21.3,0-31.9
		c0-0.2,0-0.2,0-0.3c0-1.7-1.2-3.1-2.9-3.6h-0.2H30.6h-0.2c-1.7,0.5-2.9,1.9-2.9,3.8c0,10.8,0,21.4,0,32.2
		C27.7,38.2,29.2,39.8,31.3,39.8z M33,7.5c0-1,0.5-1.7,1.5-1.9C38.6,5.3,42.9,5,47,5c0.5,0,7.4,0.3,11,0.5c0.5,0,1,0.2,1.5,0.2
		c0.9,0.2,1.5,0.9,1.5,1.7c0,1.4,0,2.7,0,4.3c0,0.5-0.3,0.9-0.9,0.9c-1.4,0-2.7,0-4.1,0c-0.5,0-1-0.2-1.5-0.5
		c-1-0.5-2.1-1.2-3.1-1.7c-0.7-0.3-1.2-0.5-1.9-0.5c-2.1,0-4.1,0-6.2,0c-0.9,0-1.4,0.3-1.5,1c-0.2,0.9,0,1.4,0.9,1.9
		c5.5,3.3,11.1,6.3,16.6,9.6c1.2,0.7,1.9,1.9,1.9,3.3c0,2.2,0,4.6,0,6.9c0,1-0.5,1.7-1.5,1.9c-3.8,0.3-7.5,0.7-11.3,0.7
		c-2.9,0-6-0.2-8.9-0.2c-1.7,0-3.3-0.2-5-0.3c-0.9-0.2-1.5-0.7-1.5-1.7c0-1.4,0-2.7,0-4.1c0-0.7,0.2-0.9,0.9-0.9c1.4,0,2.7,0,3.9,0
		c0.5,0,1,0.2,1.5,0.5c1,0.5,2.1,1.2,3.1,1.7c0.7,0.3,1.2,0.5,1.9,0.5c2.1,0,4.1,0,6.3,0c0.9,0,1.4-0.3,1.5-1
		c0.2-0.7-0.2-1.4-0.9-1.9c-5.5-3.3-11.1-6.3-16.6-9.6c-1.2-0.7-1.9-1.7-1.9-3.3C33,12.2,33,9.8,33,7.5z"/>
	<path class="st0" d="M6.6,73.5H0.7c-0.2,0-0.2,0.2-0.2,0.3v1.2c0,0.2,0.2,0.3,0.2,0.3h2.1v8.2C2.8,83.8,3,84,3,84h1.2
		c0.2,0,0.2-0.2,0.2-0.3v-8.2h2.1c0.2,0,0.2-0.2,0.2-0.3v-1.2C6.9,73.7,6.7,73.5,6.6,73.5z"/>
	<path class="st0" d="M22.2,73.5c0,0,0-0.2-0.2-0.2h-0.2c-0.2,0-0.2,0-0.2,0.2l-2.9,7l-2.9-7c0-0.2-0.2-0.2-0.2-0.2h-0.2
		c-0.2,0-0.2,0.2-0.2,0.2l-2.1,9.9c0,0.2,0,0.3,0.2,0.3h1.2c0.2,0,0.2-0.2,0.2-0.2l0.9-5.7l2.4,5.8c0,0.2,0.2,0.2,0.2,0.2h0.2
		c0.2,0,0.2,0,0.2-0.2L21,78l0.9,5.7c0,0.2,0.2,0.2,0.3,0.2h1.4c0.2,0,0.3-0.2,0.2-0.3L22.2,73.5z"/>
	<path class="st0" d="M75,82.1h-3.4v-8.2c0-0.2-0.2-0.3-0.2-0.3h-1.2c-0.2,0-0.2,0.2-0.2,0.3v9.8c0,0.2,0.2,0.3,0.2,0.3H75
		c0.2,0,0.2-0.2,0.2-0.3v-1.2C75.3,82.3,75.1,82.1,75,82.1z"/>
	<path class="st0" d="M81.3,73.5c0-0.2,0-0.2-0.2-0.2c-0.3,0-0.3,0-0.3,0.2l-4.3,9.9c0,0.2,0,0.3,0.2,0.3h1.2c0.2,0,0.3-0.2,0.3-0.3
		l0.7-1.5H83l0.7,1.5c0.2,0.2,0.2,0.3,0.3,0.3h1.2c0.2,0,0.3-0.2,0.2-0.3L81.3,73.5z M79.6,80.4l1.4-3.3l1.4,3.3H79.6z"/>
	<path class="st0" d="M64.5,73.5h-3.3c-0.2,0-0.2,0.2-0.2,0.3v9.8c0,0.2,0.2,0.3,0.2,0.3h1.2c0.2,0,0.2-0.2,0.2-0.3v-3.4h1.7
		c1.7,0,3.1-1.5,3.1-3.3C67.6,74.9,66.2,73.5,64.5,73.5z M64.5,78.3H63v-2.9h1.5c0.7,0,1.4,0.7,1.4,1.4
		C65.9,77.7,65.2,78.3,64.5,78.3z"/>
	<path class="st0" d="M91.8,73.5c-0.2,0-0.2,0-0.2,0.2l-2.2,3.4l-2.2-3.4L87,73.5h-1.4c-0.2,0-0.3,0.2-0.2,0.3l3.1,5v4.6
		c0,0.2,0.2,0.3,0.2,0.3h1.2c0.2,0,0.2-0.2,0.2-0.3v-4.8l3.1-5c0.3,0,0.3-0.2,0-0.2H91.8z"/>
	<path class="st0" d="M26.6,73.5c-0.2,0-0.2,0.2-0.2,0.3v9.8c0,0.2,0.2,0.3,0.2,0.3h5.5c0.2,0,0.3-0.2,0.3-0.3v-1.2
		c0-0.2-0.2-0.3-0.3-0.3h-3.9v-2.6h3.3c0.2,0,0.3-0.2,0.3-0.3V78c0-0.2-0.2-0.3-0.3-0.3h-3.3v-2.4h3.9c0.2,0,0.3-0.2,0.3-0.3v-1.2
		c-0.2,0-0.2-0.2-0.3-0.2H26.6z"/>
	<path class="st0" d="M9.3,73.5c-0.2,0-0.2,0.2-0.2,0.3v9.8c0,0.2,0.2,0.3,0.2,0.3h1.2c0.2,0,0.2-0.2,0.2-0.3v-9.8
		c0-0.2-0.2-0.3-0.2-0.3H9.3z"/>
	<path class="st0" d="M50.1,73.4c-2.7,0-4.8,2.4-4.8,5.3c0,2.9,2.2,5.3,4.8,5.3c2.7,0,4.8-2.4,4.8-5.3
		C55.1,75.8,52.9,73.4,50.1,73.4z M50.1,82.1c-1.7,0-3.1-1.5-3.1-3.4s1.4-3.4,3.1-3.4c1.7,0,3.1,1.5,3.1,3.4S51.8,82.1,50.1,82.1z"
		/>
	<path class="st0" d="M37.9,73.5c-0.2,0-0.2,0.2-0.2,0.3v1.2c0,0.2,0.2,0.3,0.2,0.3H40v8.2c0,0.2,0.2,0.3,0.2,0.3h1.2
		c0.2,0,0.2-0.2,0.2-0.3v-8.2h2.1c0.2,0,0.2-0.2,0.2-0.3v-1.2c0.2-0.2,0.2-0.3,0-0.3H37.9z"/>
</g>
</svg>
