<?xml version="1.0" encoding="utf-8"?>
<!-- Generator: Adobe Illustrator 21.1.0, SVG Export Plug-In . SVG Version: 6.00 Build 0)  -->
<svg version="1.1" id="Calque_1" xmlns="http://www.w3.org/2000/svg" xmlns:xlink="http://www.w3.org/1999/xlink" x="0px" y="0px"
	 viewBox="0 0 182 34" style="enable-background:new 0 0 182 34;" xml:space="preserve">
<style type="text/css">
	.st0{fill:#FFFFFF;}
</style>
<g>
	<path class="st0" d="M45.772,24.692c-2.229,0-3.748-0.906-3.748-2.597V10.951h-3.87v11.462c0,4.728,4.164,5.732,7.593,5.732v-0.006
		c1.419,0,3.232-0.046,4.536-0.24l-0.568-3.404C48.637,24.618,47.02,24.692,45.772,24.692z M9.349,17.853
		c-2.765-0.293-5.017-0.489-5.017-1.811c0-1.052,0.636-1.762,4.405-1.762c2.496,0,5.09,0.074,8.297,1.077V11.71
		c-1.591-0.465-4.161-0.881-8.199-0.881C1.982,10.83,0,12.91,0,16.067c0,3.842,2.863,4.846,8.738,5.482
		c3.23,0.343,4.87,0.416,4.87,1.64c0,1.101-0.832,1.591-4.503,1.615c-2.594,0-5.678-0.293-8.565-1.321v3.867
		c3.01,0.784,5.458,1.028,8.615,1.028c5.163,0,8.81-1.028,8.81-5.31C17.963,19.003,15.026,18.465,9.349,17.853z M27.973,10.707
		c-2.031,0-4.943,0.44-7.293,1.004v3.622c2.937-0.587,5.605-0.955,7.293-0.955c1.885,0,4.307,0.123,4.307,1.493
		c0,1.174-1.444,1.567-4.307,1.933c-5.164,0.686-8.884,1.347-8.884,5.336c0,4.111,3.231,5.286,8.884,5.286
		c6.339,0,8.567-2.227,8.567-5.825v-6.118C36.54,11.416,32.109,10.707,27.973,10.707z M32.672,21.818
		c0,2.471-2.129,2.985-5.139,2.985c-3.499,0-4.185-0.66-4.185-1.664c0-1.077,1.125-1.297,3.965-1.713
		c2.325-0.318,4.796-0.881,5.359-1.469V21.818z M60.521,10.83h-2.08c-4.553,0-7.025,1.738-7.539,5.286
		c-0.196,1.003-0.269,2.129-0.294,3.328v0.539c0.025,1.175,0.098,2.301,0.294,3.328c0.514,3.524,2.986,5.262,7.539,5.262h2.08
		c4.552,0,7.025-1.738,7.538-5.262c0.196-1.028,0.269-2.154,0.293-3.328v-0.539c-0.024-1.199-0.098-2.325-0.293-3.328
		C67.546,12.567,65.074,10.83,60.521,10.83z M64.266,21.72c-0.27,2.056-1.493,3.059-3.745,3.059h-2.08
		c-2.252,0-3.476-1.003-3.745-3.059c-0.074-0.636-0.122-1.297-0.147-2.007c0.025-0.735,0.073-1.395,0.147-2.008
		c0.269-2.08,1.493-3.083,3.745-3.083h2.08c2.252,0,3.475,1.004,3.745,3.083c0.073,0.612,0.122,1.273,0.146,2.008
		C64.388,20.423,64.339,21.084,64.266,21.72z M91.53,10.854h-1.102c-2.643,0-4.601,0.587-5.874,1.787
		c-1.247-1.2-3.206-1.787-5.849-1.787h-1.102c-4.552,0-7.024,1.737-7.538,5.262c-0.22,1.199-0.294,2.496-0.294,3.867v8.027h3.941
		v-8.027c0-0.808,0.074-1.567,0.171-2.277c0.245-2.055,1.469-3.059,3.72-3.059h1.102c2.251,0,3.474,1.004,3.744,3.059
		c0.098,0.71,0.147,1.469,0.147,2.277v8.027h3.94v-8.027c0-0.808,0.048-1.567,0.147-2.277c0.269-2.055,1.493-3.059,3.744-3.059
		h1.102c2.251,0,3.475,1.004,3.719,3.059c0.122,0.71,0.172,1.469,0.172,2.277v8.027h3.94v-8.027c0-1.371-0.073-2.668-0.294-3.867
		C98.553,12.591,96.082,10.854,91.53,10.854z M129.734,10.83h-1.836c-4.553,0-7.049,1.738-7.562,5.286
		c-0.196,1.174-0.27,2.471-0.27,3.867v8.003h3.94v-8.003c0-0.832,0.049-1.591,0.147-2.277c0.269-2.08,1.493-3.083,3.745-3.083h1.836
		c2.251,0,3.475,1.004,3.72,3.083c0.098,0.686,0.147,1.444,0.147,2.277v8.003h3.965v-8.003c0-1.395-0.098-2.692-0.294-3.867
		C136.758,12.567,134.285,10.83,129.734,10.83z M110.864,10.83h-2.055c-4.576,0-7.048,1.738-7.562,5.286
		c-0.172,1.003-0.269,2.129-0.269,3.328v0.539c0,1.175,0.097,2.301,0.269,3.328c0.514,3.524,2.986,5.262,7.562,5.262h2.055
		c4.553,0,7.049-1.738,7.563-5.262c0.171-1.028,0.245-2.154,0.269-3.328v-0.539c-0.024-1.199-0.098-2.325-0.269-3.328
		C117.913,12.567,115.417,10.83,110.864,10.83z M114.609,21.72c-0.245,2.056-1.493,3.059-3.745,3.059h-2.055
		c-2.252,0-3.5-1.003-3.744-3.059c-0.098-0.636-0.147-1.297-0.147-2.007c0-0.735,0.049-1.395,0.147-2.008
		c0.244-2.08,1.492-3.083,3.744-3.083h2.055c2.252,0,3.5,1.004,3.745,3.083c0.099,0.612,0.147,1.273,0.147,2.008
		C114.755,20.423,114.707,21.084,114.609,21.72z M178.868-0.168h-27.371c-1.729,0-3.131,1.402-3.131,3.132v27.37
		c0,1.73,1.402,3.132,3.131,3.132h27.371c1.729,0,3.132-1.402,3.132-3.132V2.964C182,1.235,180.598-0.168,178.868-0.168z
		 M176.74,10.083c0,0.342-0.277,0.619-0.619,0.619h-3.471c-0.346,0-0.78-0.147-1.177-0.37l-2.693-1.515
		c-0.434-0.242-0.848-0.363-1.165-0.363h-5.623c-0.665,0-1.088,0.539-1.088,1.204c0,0.421,0.217,0.837,0.546,1.008l13.951,7.845
		c0.797,0.449,1.339,1.373,1.339,2.345v5.891c0,0.684-0.555,1.228-1.238,1.299c-6.917,0.673-13.725,0.673-20.643,0.001
		c-0.662-0.081-1.233-0.61-1.233-1.292v-3.541c0-0.342,0.277-0.619,0.62-0.619h3.47c0.346,0,0.78,0.147,1.178,0.37l2.692,1.515
		c0.435,0.242,0.849,0.363,1.165,0.363h5.623c0.665,0,1.087-0.539,1.087-1.204c0-0.421-0.216-0.837-0.546-1.007l-13.951-7.847
		c-0.797-0.449-1.339-1.373-1.339-2.344V6.549c0-0.684,0.556-1.228,1.238-1.3c6.917-0.672,13.726-0.672,20.643,0
		c0.662,0.08,1.234,0.61,1.234,1.292V10.083z"/>
</g>
</svg>
